# xmcd
#
# Track frame offsets:
#	150
#	30262
#	52462
#	72162
#	90400
#	113650
#	138175
#	158450
#	182725
#	200987
#
# Disc length: 3027 seconds
#
# Revision: 2
# Processed by: cddbd v1.5PL3 Copyright (c) Steve Scherf et al.
# Submitted via: EasyCDDAExtractor 5.0.6
#
DISCID=820bd10a
DTITLE=黃鶯鶯 - 寧願相信
DYEAR=1993
DGENRE=國語流行
TTITLE0=曖昧
TTITLE1=寧願相信
TTITLE2=東城十里外
TTITLE3=寄夢
TTITLE4=回頭看愛
TTITLE5=我曾愛過一個男孩
TTITLE6=八號球衣
TTITLE7=大學生
TTITLE8=北風
TTITLE9=黃金色歲月
EXTD=YEAR: 1993
EXTT0=
EXTT1=
EXTT2=
EXTT3=
EXTT4=
EXTT5=
EXTT6=
EXTT7=
EXTT8=
EXTT9=
PLAYORDER=
